<?xml version="1.0" encoding="utf-8"?>
<!-- Generator: Adobe Illustrator 23.0.4, SVG Export Plug-In . SVG Version: 6.00 Build 0)  -->
<svg version="1.1" id="Layer_1" xmlns="http://www.w3.org/2000/svg" xmlns:xlink="http://www.w3.org/1999/xlink" x="0px" y="0px"
	 viewBox="0 0 250.02 50.73" style="enable-background:new 0 0 250.02 50.73;" xml:space="preserve">
<style type="text/css">
	.st0{fill:#F48020;}
	.st1{fill:#D3711B;}
	.st2{fill:#FFFFFF;}
</style>
<path class="st0" d="M224.71,15.69l-8.9-8.9c-5.34-5.34-14.01-5.34-19.35,0l-8.9,8.9c-5.34,5.34-5.34,14.01,0,19.35l8.9,8.9
	c5.34,5.34,14.01,5.34,19.35,0l8.9-8.9C230.06,29.7,230.06,21.03,224.71,15.69z"/>
<g>
	<path class="st1" d="M184.51,19.3c0.4,0.19,0.75,0.43,1.03,0.74c0.29,0.32,0.52,0.71,0.68,1.15c0.16,0.44,0.25,0.91,0.26,1.4h5.18
		c0,0,0,0,0-0.01h0.11v-8.21l-2.64,2.21c-0.35-0.31-0.72-0.58-1.13-0.82l-2.92,2.92C184.88,18.89,184.69,19.09,184.51,19.3z"/>
	<path class="st1" d="M187.35,35.01c0.66-0.32,1.26-0.71,1.8-1.17c0.76-0.67,1.37-1.46,1.81-2.39c0.45-0.92,0.67-1.93,0.69-3.03
		h-5.18c-0.01,0.47-0.11,0.9-0.28,1.27c-0.17,0.38-0.41,0.7-0.72,0.96c-0.31,0.27-0.67,0.47-1.09,0.62
		c-0.14,0.05-0.29,0.09-0.44,0.12c0.33,0.47,0.7,0.92,1.12,1.33L187.35,35.01z"/>
</g>
<path class="st2" d="M84.69,24.84c-0.69-0.5-1.52-0.91-2.47-1.23c-0.96-0.32-1.99-0.59-3.11-0.8c-0.71-0.14-1.31-0.29-1.8-0.46
	c-0.49-0.17-0.89-0.35-1.18-0.54c-0.3-0.2-0.52-0.41-0.65-0.65c-0.13-0.24-0.2-0.51-0.2-0.81c0-0.65,0.25-1.18,0.76-1.6
	c0.51-0.42,1.23-0.63,2.16-0.63c1.08,0,1.88,0.26,2.39,0.77c0.51,0.52,0.76,1.17,0.76,1.96h1.35v0h4.19V13.9l-2.46,2.07
	c-0.72-0.55-1.59-0.98-2.6-1.3c-1.07-0.33-2.27-0.5-3.61-0.5c-1.29,0-2.44,0.17-3.47,0.52c-1.03,0.34-1.89,0.81-2.6,1.4
	c-0.71,0.59-1.25,1.28-1.62,2.05c-0.38,0.78-0.56,1.6-0.56,2.46c0,0.89,0.18,1.67,0.55,2.35c0.37,0.67,0.88,1.27,1.54,1.78
	c0.66,0.51,1.43,0.94,2.33,1.28c0.9,0.34,1.87,0.63,2.93,0.86c0.87,0.18,1.57,0.36,2.12,0.55c0.55,0.19,0.98,0.39,1.3,0.6
	c0.32,0.21,0.53,0.44,0.65,0.68c0.11,0.24,0.17,0.51,0.17,0.8c0,0.65-0.27,1.17-0.81,1.58c-0.54,0.4-1.34,0.6-2.4,0.6
	c-0.5,0-0.97-0.06-1.42-0.17c-0.45-0.11-0.85-0.29-1.19-0.54c-0.34-0.24-0.62-0.56-0.83-0.95c-0.21-0.39-0.33-0.85-0.35-1.38h-5.23
	c0,0.84,0.19,1.67,0.57,2.5c0.38,0.83,0.95,1.57,1.71,2.23c0.76,0.66,1.69,1.2,2.8,1.6c1.11,0.41,2.39,0.61,3.84,0.61
	c1.32,0,2.52-0.16,3.59-0.48c1.07-0.32,1.98-0.76,2.74-1.32c0.76-0.56,1.34-1.23,1.75-2c0.41-0.77,0.61-1.61,0.61-2.53
	c0-1.02-0.2-1.89-0.59-2.61C85.93,25.95,85.39,25.34,84.69,24.84z"/>
<path class="st2" d="M108.97,16.97c-0.77-0.89-1.72-1.57-2.86-2.06c-1.13-0.49-2.44-0.74-3.94-0.74c-1.48,0-2.81,0.26-4,0.79
	c-1.19,0.53-2.2,1.26-3.04,2.21c-0.83,0.94-1.48,2.07-1.93,3.37c-0.22,0.63-0.38,1.28-0.49,1.97H89.1l3.48,4.15
	c0.09,1,0.3,1.95,0.65,2.85c0.46,1.22,1.14,2.28,2.02,3.18c0.88,0.9,1.96,1.62,3.23,2.14c1.27,0.52,2.7,0.78,4.31,0.78
	c1.01,0,1.93-0.11,2.78-0.32c0.85-0.21,1.61-0.49,2.28-0.84c0.67-0.35,1.26-0.75,1.76-1.19c0.5-0.45,0.91-0.9,1.24-1.38l-2.71-3.04
	c-0.61,0.79-1.34,1.37-2.2,1.75c-0.85,0.38-1.78,0.56-2.79,0.56c-0.71,0-1.36-0.11-1.93-0.32c-0.57-0.22-1.07-0.52-1.5-0.91
	c-0.43-0.39-0.78-0.86-1.05-1.4c-0.27-0.54-0.45-1.15-0.54-1.82h8.41v-0.02h4.75v-2.35c0-1.53-0.19-2.92-0.58-4.17
	C110.32,18.92,109.74,17.85,108.97,16.97z M98.62,21.18c0.2-0.52,0.47-0.97,0.79-1.35c0.32-0.38,0.71-0.67,1.16-0.88
	c0.45-0.21,0.98-0.32,1.58-0.32c0.64,0,1.19,0.1,1.65,0.29c0.46,0.19,0.85,0.46,1.15,0.8c0.3,0.34,0.52,0.75,0.67,1.22
	c0.15,0.47,0.23,0.98,0.24,1.53v0.03h-7.6C98.35,22.03,98.47,21.58,98.62,21.18z"/>
<path class="st2" d="M144,16.97c-0.77-0.89-1.72-1.57-2.86-2.06c-1.13-0.49-2.45-0.74-3.94-0.74c-1.48,0-2.81,0.26-4,0.79
	c-1.19,0.53-2.2,1.26-3.04,2.21c-0.83,0.94-1.48,2.07-1.93,3.37c-0.21,0.62-0.37,1.26-0.48,1.94h-3.68l3.52,4.19h0.02
	c0.09,0.99,0.31,1.93,0.65,2.83c0.46,1.22,1.14,2.28,2.03,3.18c0.88,0.9,1.96,1.62,3.23,2.14c1.27,0.52,2.7,0.78,4.31,0.78
	c1.01,0,1.93-0.11,2.78-0.32c0.85-0.21,1.61-0.49,2.28-0.84c0.67-0.35,1.26-0.75,1.76-1.19c0.5-0.45,0.91-0.9,1.24-1.38l-2.71-3.04
	c-0.61,0.79-1.34,1.37-2.2,1.75c-0.85,0.38-1.78,0.56-2.79,0.56c-0.71,0-1.36-0.11-1.93-0.32c-0.57-0.22-1.07-0.52-1.5-0.91
	c-0.43-0.39-0.78-0.86-1.05-1.4c-0.27-0.55-0.46-1.16-0.54-1.83h13.16v-2.35c0-1.53-0.19-2.92-0.58-4.17
	C145.35,18.92,144.77,17.85,144,16.97z M133.66,21.18c0.2-0.52,0.47-0.97,0.79-1.35c0.33-0.38,0.71-0.67,1.17-0.88
	c0.45-0.21,0.98-0.32,1.58-0.32c0.64,0,1.19,0.1,1.65,0.29c0.46,0.19,0.85,0.46,1.15,0.8c0.3,0.34,0.52,0.75,0.67,1.22
	c0.15,0.47,0.23,0.98,0.24,1.53h-7.59C133.39,22.02,133.5,21.58,133.66,21.18z"/>
<path class="st2" d="M167.15,15.93c-0.57-0.62-1.26-1.07-2.06-1.35c-0.8-0.27-1.69-0.41-2.67-0.41c-1.24,0-2.36,0.24-3.36,0.72
	c-1.01,0.48-1.72,1-2.44,1.89l-0.31-2.22h-2.64v-0.01h-6.06l3.5,4.17v16.51h5.52V20.65c0.36-0.61,0.82-1.09,1.4-1.45
	c0.58-0.36,1.28-0.53,2.09-0.53c0.53,0,1.01,0.05,1.41,0.16c0.41,0.11,0.75,0.29,1.03,0.54c0.28,0.25,0.49,0.6,0.64,1.03
	c0.15,0.43,0.22,0.98,0.22,1.64v13.18h5.52V22.08c0-1.46-0.16-2.7-0.47-3.71C168.16,17.37,167.72,16.55,167.15,15.93z"/>
<path class="st2" d="M185.98,14.73c-1.05-0.38-2.21-0.56-3.49-0.56c-1.59,0-2.98,0.27-4.17,0.81c-1.19,0.54-2.18,1.28-2.97,2.22
	c-0.79,0.94-1.38,2.05-1.78,3.32c-0.4,1.27-0.59,2.64-0.59,4.11v0.53c0,1.46,0.2,2.83,0.59,4.1c0.39,1.27,0.99,2.37,1.78,3.3
	c0.79,0.94,1.78,1.68,2.98,2.22c1.2,0.54,2.6,0.81,4.2,0.81c1.2,0,2.31-0.19,3.35-0.55c1.04-0.37,1.94-0.89,2.7-1.56
	c0.76-0.67,1.37-1.46,1.81-2.39c0.45-0.92,0.67-1.93,0.69-3.03h-5.18c-0.01,0.47-0.11,0.9-0.28,1.27c-0.17,0.38-0.41,0.7-0.72,0.96
	c-0.31,0.27-0.67,0.47-1.09,0.62c-0.42,0.15-0.89,0.22-1.4,0.22c-0.83,0-1.5-0.16-2.01-0.49c-0.51-0.32-0.91-0.76-1.19-1.31
	c-0.29-0.55-0.48-1.18-0.58-1.91c-0.1-0.73-0.15-1.48-0.15-2.27v-0.53c0-0.78,0.05-1.53,0.15-2.25c0.1-0.73,0.3-1.37,0.58-1.92
	c0.29-0.55,0.68-1,1.19-1.33c0.51-0.33,1.17-0.5,1.97-0.5c0.56,0,1.06,0.1,1.49,0.29c0.43,0.19,0.8,0.45,1.09,0.77
	c0.29,0.32,0.52,0.71,0.68,1.15c0.16,0.44,0.25,0.91,0.26,1.4h5.18c0,0,0,0,0-0.01h0.11v-8.21l-2.64,2.21
	C187.83,15.6,186.97,15.09,185.98,14.73z"/>
<polygon class="st2" points="115.5,6.27 111.99,6.27 115.5,10.45 115.5,35.22 121.04,35.22 121.04,6.27 118.05,6.27 "/>
<path class="st1" d="M211.35,27.16h4.76v-2.35c0-1.53-0.19-2.92-0.58-4.17c-0.39-1.25-0.97-2.31-1.74-3.2
	c-0.77-0.89-1.72-1.57-2.86-2.06c-1.13-0.49-2.45-0.74-3.94-0.74c-1.48,0-2.81,0.26-4,0.79c-1.19,0.53-2.2,1.26-3.04,2.21
	c-0.83,0.94-1.48,2.07-1.93,3.37c-0.22,0.62-0.38,1.27-0.49,1.95h-3.63l3.49,4.16c0.09,1,0.3,1.95,0.65,2.85
	c0.46,1.22,1.14,2.28,2.02,3.18c0.88,0.9,1.96,1.62,3.23,2.14c1.27,0.52,2.7,0.78,4.31,0.78c1.01,0,1.93-0.11,2.78-0.32
	c0.85-0.21,1.61-0.49,2.28-0.84c0.67-0.35,1.26-0.75,1.76-1.19c0.5-0.45,0.91-0.9,1.24-1.38l-2.71-3.04
	c-0.61,0.79-1.34,1.37-2.2,1.75c-0.85,0.38-1.78,0.56-2.79,0.56c-0.71,0-1.36-0.11-1.93-0.32c-0.57-0.22-1.07-0.52-1.5-0.91
	c-0.43-0.39-0.78-0.86-1.05-1.4c-0.27-0.55-0.46-1.16-0.54-1.83L211.35,27.16L211.35,27.16z M203.44,21.66
	c0.2-0.52,0.47-0.97,0.79-1.35c0.32-0.38,0.71-0.67,1.16-0.88c0.45-0.21,0.98-0.32,1.58-0.32c0.64,0,1.19,0.1,1.65,0.29
	c0.46,0.19,0.85,0.46,1.15,0.8c0.3,0.34,0.52,0.75,0.67,1.22c0.15,0.47,0.23,0.98,0.24,1.53v0.01h-7.6
	C203.17,22.5,203.29,22.06,203.44,21.66z"/>
<path class="st2" d="M41.19,17.07c-0.77-0.89-1.72-1.57-2.86-2.06c-1.13-0.49-2.44-0.74-3.94-0.74c-1.48,0-2.81,0.26-4,0.79
	c-1.19,0.53-2.2,1.26-3.04,2.21c-0.83,0.94-1.48,2.07-1.93,3.37c-0.21,0.62-0.37,1.27-0.49,1.94H21.3l3.5,4.17
	c0.09,1,0.3,1.95,0.65,2.85c0.46,1.22,1.14,2.28,2.03,3.18c0.88,0.9,1.96,1.62,3.23,2.14c1.27,0.52,2.7,0.78,4.31,0.78
	c1.01,0,1.93-0.11,2.78-0.32c0.85-0.21,1.61-0.49,2.28-0.84c0.67-0.35,1.26-0.75,1.76-1.19c0.5-0.45,0.91-0.9,1.24-1.38l-2.71-3.04
	c-0.61,0.79-1.34,1.37-2.2,1.75c-0.85,0.38-1.78,0.56-2.79,0.56c-0.71,0-1.36-0.11-1.93-0.32c-0.57-0.22-1.07-0.52-1.5-0.91
	c-0.43-0.39-0.78-0.86-1.05-1.4c-0.27-0.55-0.46-1.16-0.54-1.83h13.16v-2.35c0-1.53-0.19-2.92-0.58-4.17
	C42.54,19.03,41.96,17.96,41.19,17.07z M30.84,21.29c0.2-0.52,0.47-0.97,0.79-1.35c0.32-0.38,0.71-0.67,1.16-0.88
	c0.45-0.21,0.98-0.31,1.58-0.31c0.64,0,1.19,0.1,1.65,0.29c0.46,0.19,0.85,0.46,1.15,0.8c0.3,0.34,0.52,0.75,0.67,1.22
	c0.15,0.47,0.23,0.98,0.24,1.53v0h-7.6C30.58,22.12,30.69,21.68,30.84,21.29z"/>
<polygon class="st2" points="66.91,14.66 60.28,14.66 54.99,20.87 53.92,22.25 53.92,6.38 50.94,6.38 48.4,6.38 44.88,6.38 
	48.39,10.57 48.4,10.57 48.4,35.33 53.92,35.33 53.92,29.03 55.91,27.04 61.22,35.33 67.56,35.33 59.44,23.28 "/>
<g>
	<path class="st2" d="M94.66,44.63c0-0.37,0.05-0.72,0.16-1.04c0.11-0.32,0.27-0.6,0.47-0.83c0.2-0.24,0.45-0.42,0.75-0.55
		c0.29-0.13,0.63-0.2,1-0.2c0.38,0,0.71,0.07,1.01,0.2c0.3,0.13,0.55,0.32,0.75,0.55c0.2,0.23,0.36,0.51,0.47,0.83
		c0.11,0.32,0.16,0.67,0.16,1.04v0.1c0,0.37-0.05,0.72-0.16,1.04c-0.11,0.32-0.26,0.6-0.47,0.83c-0.2,0.23-0.46,0.42-0.75,0.55
		c-0.3,0.13-0.63,0.2-1.01,0.2c-0.38,0-0.71-0.07-1.01-0.2c-0.3-0.13-0.55-0.31-0.75-0.55c-0.2-0.23-0.36-0.51-0.47-0.83
		c-0.11-0.32-0.16-0.67-0.16-1.04V44.63z M95.81,44.73c0,0.23,0.02,0.45,0.07,0.66c0.05,0.21,0.12,0.39,0.22,0.54
		c0.1,0.15,0.23,0.28,0.39,0.36c0.16,0.09,0.34,0.13,0.56,0.13c0.21,0,0.4-0.04,0.55-0.13c0.16-0.09,0.29-0.21,0.39-0.36
		c0.1-0.15,0.17-0.33,0.22-0.54c0.05-0.21,0.07-0.43,0.07-0.66v-0.1c0-0.23-0.02-0.44-0.07-0.65c-0.05-0.2-0.12-0.38-0.23-0.54
		c-0.1-0.15-0.23-0.28-0.39-0.37c-0.16-0.09-0.34-0.14-0.56-0.14c-0.22,0-0.4,0.05-0.55,0.14c-0.15,0.09-0.28,0.22-0.38,0.37
		c-0.1,0.15-0.18,0.33-0.22,0.54s-0.07,0.42-0.07,0.65V44.73z"/>
	<path class="st2" d="M103.2,42.11l0.03,0.6c0.18-0.22,0.4-0.39,0.65-0.51c0.25-0.12,0.54-0.18,0.85-0.18c0.25,0,0.47,0.03,0.67,0.1
		c0.2,0.07,0.37,0.18,0.52,0.33c0.14,0.15,0.25,0.35,0.33,0.59c0.08,0.24,0.12,0.54,0.12,0.89v3.32h-1.16v-3.33
		c0-0.18-0.02-0.33-0.06-0.45c-0.04-0.12-0.1-0.22-0.17-0.3c-0.08-0.08-0.17-0.13-0.28-0.16c-0.11-0.03-0.24-0.05-0.39-0.05
		c-0.24,0-0.44,0.06-0.62,0.17c-0.18,0.11-0.32,0.27-0.42,0.46v3.66h-1.16v-5.15H103.2z"/>
	<path class="st2" d="M110.49,47.26h-1.16v-7.3h1.16V47.26z"/>
	<path class="st2" d="M113.47,40.77c0-0.18,0.06-0.32,0.17-0.44c0.11-0.12,0.27-0.18,0.48-0.18s0.37,0.06,0.49,0.18
		c0.11,0.12,0.17,0.26,0.17,0.44c0,0.17-0.06,0.32-0.17,0.44c-0.11,0.12-0.28,0.17-0.49,0.17s-0.37-0.06-0.48-0.17
		C113.52,41.09,113.47,40.95,113.47,40.77z M114.69,47.26h-1.16v-5.15h1.16V47.26z"/>
	<path class="st2" d="M118.74,42.11l0.03,0.6c0.18-0.22,0.4-0.39,0.65-0.51c0.25-0.12,0.54-0.18,0.85-0.18
		c0.25,0,0.47,0.03,0.67,0.1c0.2,0.07,0.37,0.18,0.52,0.33c0.14,0.15,0.25,0.35,0.33,0.59c0.08,0.24,0.12,0.54,0.12,0.89v3.32h-1.16
		v-3.33c0-0.18-0.02-0.33-0.06-0.45c-0.04-0.12-0.1-0.22-0.17-0.3c-0.08-0.08-0.17-0.13-0.28-0.16c-0.11-0.03-0.24-0.05-0.39-0.05
		c-0.24,0-0.44,0.06-0.62,0.17c-0.18,0.11-0.32,0.27-0.42,0.46v3.66h-1.16v-5.15H118.74z"/>
	<path class="st2" d="M127.06,47.35c-0.38,0-0.72-0.06-1.03-0.19c-0.3-0.13-0.56-0.3-0.77-0.52c-0.21-0.22-0.38-0.48-0.49-0.79
		c-0.11-0.3-0.17-0.63-0.17-0.98v-0.19c0-0.41,0.06-0.77,0.18-1.1c0.12-0.33,0.29-0.61,0.49-0.84c0.21-0.23,0.46-0.41,0.74-0.53
		c0.28-0.12,0.59-0.19,0.92-0.19c0.37,0,0.7,0.06,0.98,0.19c0.28,0.13,0.5,0.3,0.68,0.53c0.18,0.23,0.32,0.49,0.4,0.8
		c0.09,0.31,0.13,0.65,0.13,1.02v0.49h-3.36c0.02,0.2,0.06,0.38,0.13,0.55c0.07,0.17,0.16,0.31,0.28,0.44
		c0.12,0.12,0.26,0.22,0.42,0.29c0.16,0.07,0.34,0.1,0.54,0.1c0.29,0,0.53-0.06,0.74-0.17c0.21-0.11,0.39-0.27,0.55-0.47l0.62,0.59
		c-0.08,0.12-0.18,0.24-0.31,0.36c-0.12,0.12-0.26,0.22-0.43,0.31c-0.16,0.09-0.35,0.16-0.55,0.22
		C127.55,47.32,127.32,47.35,127.06,47.35z M126.92,42.94c-0.32,0-0.57,0.11-0.77,0.33c-0.19,0.22-0.32,0.53-0.37,0.93h2.2v-0.09
		c-0.01-0.15-0.03-0.3-0.07-0.44c-0.04-0.14-0.1-0.27-0.18-0.38c-0.08-0.11-0.19-0.2-0.32-0.26
		C127.27,42.97,127.11,42.94,126.92,42.94z"/>
	<path class="st2" d="M138.93,45.89c0-0.1-0.01-0.18-0.04-0.27c-0.03-0.08-0.08-0.16-0.17-0.24c-0.08-0.07-0.2-0.14-0.36-0.21
		c-0.16-0.06-0.36-0.12-0.61-0.18c-0.29-0.06-0.54-0.13-0.77-0.21c-0.23-0.08-0.42-0.18-0.58-0.3c-0.16-0.12-0.28-0.25-0.37-0.41
		c-0.09-0.16-0.13-0.34-0.13-0.56c0-0.2,0.05-0.4,0.14-0.58c0.09-0.18,0.22-0.34,0.38-0.48c0.17-0.14,0.36-0.25,0.6-0.33
		c0.23-0.08,0.5-0.12,0.78-0.12c0.31,0,0.58,0.04,0.83,0.13c0.24,0.08,0.45,0.2,0.62,0.34c0.17,0.15,0.3,0.32,0.39,0.51
		c0.09,0.19,0.13,0.4,0.13,0.63h-0.88c0-0.1-0.02-0.21-0.07-0.32c-0.05-0.11-0.12-0.2-0.21-0.29c-0.09-0.08-0.2-0.15-0.34-0.2
		c-0.13-0.05-0.29-0.08-0.46-0.08c-0.18,0-0.34,0.02-0.47,0.06c-0.13,0.04-0.23,0.1-0.32,0.17c-0.08,0.07-0.14,0.15-0.18,0.24
		c-0.04,0.09-0.06,0.18-0.06,0.28c0,0.1,0.02,0.18,0.05,0.26c0.03,0.08,0.09,0.14,0.18,0.21c0.09,0.06,0.21,0.12,0.36,0.17
		c0.15,0.05,0.35,0.11,0.6,0.16c0.31,0.07,0.59,0.16,0.82,0.25c0.23,0.09,0.42,0.2,0.58,0.32c0.15,0.12,0.27,0.26,0.34,0.42
		c0.07,0.16,0.11,0.34,0.11,0.55c0,0.23-0.05,0.43-0.14,0.62c-0.09,0.19-0.23,0.35-0.4,0.48c-0.17,0.13-0.38,0.24-0.63,0.31
		c-0.24,0.07-0.52,0.11-0.81,0.11c-0.34,0-0.64-0.05-0.91-0.14c-0.26-0.1-0.48-0.22-0.66-0.38c-0.18-0.16-0.31-0.34-0.4-0.54
		c-0.09-0.2-0.14-0.41-0.14-0.62h0.88c0.01,0.18,0.05,0.33,0.13,0.45c0.08,0.12,0.18,0.22,0.29,0.3c0.12,0.08,0.25,0.13,0.39,0.16
		c0.14,0.03,0.28,0.05,0.42,0.05c0.18,0,0.34-0.02,0.48-0.06c0.14-0.04,0.25-0.09,0.34-0.16c0.09-0.07,0.16-0.15,0.21-0.24
		C138.91,46.09,138.93,46,138.93,45.89z"/>
	<path class="st2" d="M142.44,44.63c0-0.37,0.05-0.72,0.16-1.04c0.11-0.32,0.26-0.6,0.47-0.83c0.2-0.24,0.45-0.42,0.73-0.55
		c0.29-0.13,0.61-0.2,0.97-0.2c0.36,0,0.69,0.07,0.98,0.2c0.29,0.13,0.54,0.32,0.74,0.55c0.2,0.23,0.36,0.51,0.47,0.83
		c0.11,0.32,0.16,0.67,0.16,1.04v0.11c0,0.37-0.05,0.72-0.16,1.04c-0.11,0.32-0.26,0.59-0.47,0.83c-0.2,0.23-0.45,0.42-0.74,0.55
		c-0.29,0.13-0.61,0.2-0.97,0.2c-0.36,0-0.69-0.07-0.97-0.2c-0.29-0.13-0.53-0.31-0.74-0.55c-0.2-0.23-0.36-0.51-0.47-0.83
		c-0.11-0.32-0.16-0.67-0.16-1.04V44.63z M143.32,44.74c0,0.26,0.03,0.5,0.09,0.73c0.06,0.23,0.15,0.43,0.27,0.6
		c0.12,0.17,0.27,0.31,0.46,0.41c0.18,0.1,0.4,0.15,0.64,0.15c0.24,0,0.45-0.05,0.64-0.15c0.18-0.1,0.34-0.24,0.46-0.41
		c0.12-0.17,0.21-0.37,0.27-0.6c0.06-0.23,0.09-0.47,0.09-0.73v-0.11c0-0.25-0.03-0.5-0.09-0.73c-0.06-0.23-0.15-0.43-0.28-0.6
		c-0.12-0.17-0.28-0.31-0.46-0.41c-0.18-0.1-0.4-0.15-0.64-0.15c-0.24,0-0.45,0.05-0.63,0.15c-0.18,0.1-0.33,0.24-0.45,0.41
		c-0.12,0.17-0.21,0.37-0.27,0.6c-0.06,0.23-0.09,0.47-0.09,0.73V44.74z"/>
	<path class="st2" d="M150.9,47.26h-0.88v-7.3h0.88V47.26z"/>
	<path class="st2" d="M157.19,46.75c-0.16,0.19-0.37,0.34-0.61,0.44c-0.25,0.11-0.55,0.16-0.89,0.16c-0.25,0-0.48-0.04-0.69-0.11
		c-0.21-0.07-0.38-0.18-0.53-0.34c-0.15-0.15-0.26-0.35-0.34-0.59c-0.08-0.24-0.12-0.53-0.12-0.88v-3.32h0.88v3.33
		c0,0.23,0.03,0.42,0.08,0.57c0.05,0.15,0.13,0.27,0.21,0.36c0.09,0.09,0.19,0.15,0.3,0.18c0.11,0.03,0.23,0.05,0.35,0.05
		c0.36,0,0.65-0.07,0.86-0.2c0.22-0.14,0.38-0.32,0.48-0.55v-3.74h0.88v5.15h-0.84L157.19,46.75z"/>
	<path class="st2" d="M162.29,40.86v1.25h0.96v0.68h-0.96v3.19c0,0.13,0.02,0.24,0.05,0.32c0.03,0.08,0.07,0.14,0.13,0.19
		c0.05,0.04,0.11,0.07,0.18,0.09c0.07,0.01,0.14,0.02,0.21,0.02s0.15-0.01,0.23-0.02c0.08-0.01,0.14-0.03,0.19-0.04v0.71
		c-0.07,0.02-0.16,0.04-0.27,0.06c-0.11,0.02-0.25,0.03-0.4,0.03c-0.16,0-0.31-0.02-0.46-0.07c-0.14-0.05-0.27-0.12-0.38-0.23
		c-0.11-0.11-0.19-0.25-0.26-0.43c-0.06-0.18-0.1-0.39-0.1-0.65v-3.19h-0.94v-0.68h0.94v-1.25H162.29z"/>
	<path class="st2" d="M166,40.75c0-0.14,0.04-0.26,0.13-0.36c0.09-0.1,0.22-0.15,0.39-0.15s0.3,0.05,0.39,0.15
		c0.09,0.1,0.13,0.22,0.13,0.36c0,0.14-0.04,0.26-0.13,0.36c-0.09,0.1-0.22,0.14-0.39,0.14s-0.3-0.05-0.39-0.14
		C166.04,41.01,166,40.89,166,40.75z M166.95,47.26h-0.88v-5.15h0.88V47.26z"/>
	<path class="st2" d="M169.84,44.63c0-0.37,0.05-0.72,0.16-1.04c0.11-0.32,0.26-0.6,0.47-0.83c0.2-0.24,0.45-0.42,0.73-0.55
		c0.29-0.13,0.61-0.2,0.97-0.2c0.36,0,0.69,0.07,0.98,0.2c0.29,0.13,0.54,0.32,0.74,0.55c0.2,0.23,0.36,0.51,0.47,0.83
		c0.11,0.32,0.16,0.67,0.16,1.04v0.11c0,0.37-0.05,0.72-0.16,1.04c-0.11,0.32-0.26,0.59-0.47,0.83c-0.2,0.23-0.45,0.42-0.74,0.55
		c-0.29,0.13-0.61,0.2-0.97,0.2c-0.36,0-0.69-0.07-0.97-0.2c-0.29-0.13-0.53-0.31-0.74-0.55c-0.2-0.23-0.36-0.51-0.47-0.83
		c-0.11-0.32-0.16-0.67-0.16-1.04V44.63z M170.73,44.74c0,0.26,0.03,0.5,0.09,0.73c0.06,0.23,0.15,0.43,0.27,0.6
		c0.12,0.17,0.27,0.31,0.46,0.41c0.18,0.1,0.4,0.15,0.64,0.15c0.24,0,0.45-0.05,0.64-0.15c0.18-0.1,0.34-0.24,0.46-0.41
		c0.12-0.17,0.21-0.37,0.27-0.6c0.06-0.23,0.09-0.47,0.09-0.73v-0.11c0-0.25-0.03-0.5-0.09-0.73c-0.06-0.23-0.15-0.43-0.28-0.6
		c-0.12-0.17-0.28-0.31-0.46-0.41c-0.18-0.1-0.4-0.15-0.64-0.15c-0.24,0-0.45,0.05-0.63,0.15c-0.18,0.1-0.33,0.24-0.45,0.41
		c-0.12,0.17-0.21,0.37-0.27,0.6c-0.06,0.23-0.09,0.47-0.09,0.73V44.74z"/>
	<path class="st2" d="M178.18,42.11l0.03,0.65c0.18-0.23,0.41-0.41,0.67-0.54c0.26-0.13,0.55-0.2,0.88-0.2
		c0.25,0,0.48,0.03,0.68,0.1c0.2,0.07,0.38,0.18,0.52,0.33c0.14,0.15,0.25,0.34,0.33,0.58c0.08,0.24,0.12,0.52,0.12,0.86v3.37h-0.88
		v-3.38c0-0.2-0.02-0.37-0.07-0.51c-0.04-0.14-0.11-0.26-0.2-0.34c-0.09-0.09-0.19-0.15-0.32-0.19c-0.13-0.04-0.28-0.06-0.44-0.06
		c-0.29,0-0.54,0.08-0.75,0.23c-0.22,0.15-0.38,0.35-0.5,0.6v3.67h-0.88v-5.15H178.18z"/>
	<path class="st2" d="M187.43,45.89c0-0.1-0.01-0.18-0.04-0.27c-0.03-0.08-0.08-0.16-0.17-0.24c-0.08-0.07-0.2-0.14-0.36-0.21
		c-0.16-0.06-0.36-0.12-0.61-0.18c-0.29-0.06-0.54-0.13-0.77-0.21c-0.23-0.08-0.42-0.18-0.58-0.3c-0.16-0.12-0.28-0.25-0.37-0.41
		c-0.09-0.16-0.13-0.34-0.13-0.56c0-0.2,0.05-0.4,0.14-0.58c0.09-0.18,0.22-0.34,0.38-0.48c0.17-0.14,0.36-0.25,0.6-0.33
		c0.23-0.08,0.5-0.12,0.78-0.12c0.31,0,0.58,0.04,0.83,0.13c0.24,0.08,0.45,0.2,0.62,0.34c0.17,0.15,0.3,0.32,0.39,0.51
		c0.09,0.19,0.13,0.4,0.13,0.63h-0.88c0-0.1-0.02-0.21-0.07-0.32c-0.05-0.11-0.12-0.2-0.21-0.29c-0.09-0.08-0.2-0.15-0.34-0.2
		c-0.13-0.05-0.29-0.08-0.46-0.08c-0.18,0-0.34,0.02-0.47,0.06c-0.13,0.04-0.23,0.1-0.32,0.17c-0.08,0.07-0.14,0.15-0.18,0.24
		c-0.04,0.09-0.06,0.18-0.06,0.28c0,0.1,0.02,0.18,0.05,0.26c0.03,0.08,0.09,0.14,0.18,0.21c0.09,0.06,0.21,0.12,0.36,0.17
		c0.15,0.05,0.35,0.11,0.6,0.16c0.31,0.07,0.59,0.16,0.82,0.25c0.23,0.09,0.42,0.2,0.58,0.32c0.15,0.12,0.27,0.26,0.34,0.42
		c0.07,0.16,0.11,0.34,0.11,0.55c0,0.23-0.05,0.43-0.14,0.62c-0.09,0.19-0.23,0.35-0.4,0.48c-0.17,0.13-0.38,0.24-0.63,0.31
		c-0.24,0.07-0.52,0.11-0.81,0.11c-0.34,0-0.64-0.05-0.91-0.14c-0.26-0.1-0.48-0.22-0.66-0.38c-0.18-0.16-0.31-0.34-0.4-0.54
		c-0.09-0.2-0.14-0.41-0.14-0.62h0.88c0.01,0.18,0.05,0.33,0.13,0.45c0.08,0.12,0.17,0.22,0.29,0.3c0.12,0.08,0.25,0.13,0.39,0.16
		c0.14,0.03,0.28,0.05,0.42,0.05c0.18,0,0.34-0.02,0.48-0.06s0.25-0.09,0.34-0.16c0.09-0.07,0.16-0.15,0.21-0.24
		C187.4,46.09,187.43,46,187.43,45.89z"/>
</g>
<path class="st2" d="M210.3,26.68h4.76v-2.35c0-1.53-0.19-2.92-0.58-4.17c-0.39-1.25-0.97-2.31-1.74-3.2
	c-0.77-0.89-1.72-1.57-2.86-2.06c-1.13-0.49-2.45-0.74-3.94-0.74c-1.48,0-2.81,0.26-4,0.79c-1.19,0.53-2.2,1.26-3.04,2.21
	c-0.83,0.94-1.48,2.07-1.93,3.37c-0.22,0.62-0.38,1.27-0.49,1.95h-3.63l3.49,4.16c0.09,1,0.3,1.95,0.65,2.85
	c0.46,1.22,1.14,2.28,2.02,3.18c0.88,0.9,1.96,1.62,3.23,2.14c1.27,0.52,2.7,0.78,4.31,0.78c1.01,0,1.93-0.11,2.78-0.32
	c0.85-0.21,1.61-0.49,2.28-0.84c0.67-0.35,1.26-0.75,1.76-1.19c0.5-0.45,0.91-0.9,1.24-1.38l-2.71-3.04
	c-0.61,0.79-1.34,1.37-2.2,1.75c-0.85,0.38-1.78,0.56-2.79,0.56c-0.71,0-1.36-0.11-1.93-0.32c-0.57-0.22-1.07-0.52-1.5-0.91
	c-0.43-0.39-0.78-0.86-1.05-1.4c-0.27-0.55-0.46-1.16-0.54-1.83L210.3,26.68L210.3,26.68z M202.39,21.18
	c0.2-0.52,0.47-0.97,0.79-1.35c0.32-0.38,0.71-0.67,1.16-0.88c0.45-0.21,0.98-0.32,1.58-0.32c0.64,0,1.19,0.1,1.65,0.29
	c0.46,0.19,0.85,0.46,1.15,0.8c0.3,0.34,0.52,0.75,0.67,1.22c0.15,0.47,0.23,0.98,0.24,1.53v0.01h-7.6
	C202.12,22.03,202.24,21.58,202.39,21.18z"/>
</svg>
