<?xml version="1.0" encoding="utf-8"?>
<!-- Generator: Adobe Illustrator 23.0.4, SVG Export Plug-In . SVG Version: 6.00 Build 0)  -->
<svg version="1.1" id="Logo_Layer" focusable="false"
	 xmlns="http://www.w3.org/2000/svg" xmlns:xlink="http://www.w3.org/1999/xlink" x="0px" y="0px" viewBox="0 0 576 512"
	 style="enable-background:new 0 0 576 512;" xml:space="preserve">
<style type="text/css">
	.st0{fill:#FFFFFF;}
</style>
<path id="Logo" class="st0" d="M166.4,280.5c0,13.2-10.7,24-24,24s-24-10.7-24-24s10.7-24,24-24S166.4,267.3,166.4,280.5z
	 M431.4,256.6c-13.2,0-24,10.7-24,24c0,13.2,10.7,24,24,24c13.2,0,24-10.7,24-24C455.3,267.3,444.6,256.6,431.4,256.6z M520.8,396.1
	c-62.7,49.1-153.3,38.1-202.4-24.6l-31,46.3l-30.7-45.9c-48.3,60.4-135.6,71.9-197.9,26.1c-64.1-47.2-77.8-137.3-30.6-201.4
	C22.2,176,12.6,156.7,0,139.4l90.3-0.1c59.1-36.7,127.5-55.5,197.1-54c67.9-1.2,134.6,17.3,192.2,53.3l96.2,0.1
	c-12.7,17.4-22.3,36.9-28.4,57.6C594.2,259.2,582.4,347.8,520.8,396.1z M259.4,281.8c0-63.6-51.5-115.1-115.1-115.1
	S29.2,218.2,29.2,281.8c0,63.6,51.5,115.1,115.1,115.1C207.8,396.8,259.3,345.3,259.4,281.8L259.4,281.8z M288,271.3
	c5.4-73.4,65.5-130.9,139.1-133c-44.1-19.1-91.7-28.5-139.7-27.8c-48.1-0.5-95.8,8.8-140.2,27.3C221.5,139.3,282.5,197.1,288,271.3
	L288,271.3z M539.7,242.5c-22-59.6-88.2-90.1-147.8-68.2c-59.6,22-90.1,88.2-68.2,147.8v0c22,59.6,88.2,90.1,147.8,68.1
	C531.2,368.3,561.7,302.2,539.7,242.5L539.7,242.5z M213.6,280.5v0.1c-0.1,39.3-32,71.2-71.3,71.1s-71.2-32-71.1-71.3
	s32-71.2,71.3-71.1C181.8,209.4,213.6,241.3,213.6,280.5L213.6,280.5z M189.1,280.5L189.1,280.5c-0.1-25.9-21-46.7-46.8-46.7
	c-25.8,0.1-46.6,21-46.6,46.8c0.1,25.8,21,46.6,46.8,46.6C168.2,327.1,189.1,306.2,189.1,280.5z M502.5,280.5L502.5,280.5
	c0,39.4-31.9,71.2-71.2,71.2s-71.2-31.9-71.2-71.2c0-39.3,31.9-71.2,71.2-71.2C470.7,209.4,502.5,241.2,502.5,280.5z M478,280.5
	c0-25.8-20.9-46.7-46.7-46.7s-46.7,20.9-46.7,46.7c0,25.8,20.9,46.7,46.7,46.7C457.1,327.2,478,306.3,478,280.5L478,280.5L478,280.5
	z"/>
</svg>
